
<svg width="50" height="50" viewBox="0 0 50 50" fill="none" xmlns="http://www.w3.org/2000/svg">
<path d="M31.25 7.8125C28.058 7.81495 24.9296 8.70534 22.2147 10.3841C19.4997 12.0629 17.3054 14.4638 15.877 17.3184C14.1777 17.0705 12.4455 17.1755 10.7886 17.6267C9.13165 18.0779 7.58546 18.8657 6.24645 19.941C4.90745 21.0162 3.80437 22.3558 3.00599 23.8762C2.20762 25.3966 1.7311 27.0652 1.60614 28.7779C1.48118 30.4906 1.71046 32.2107 2.2797 33.8309C2.84893 35.4511 3.7459 36.9366 4.91465 38.1948C6.08341 39.453 7.49888 40.4569 9.07277 41.1438C10.6467 41.8308 12.3452 42.1861 14.0625 42.1875H31.25C35.8084 42.1875 40.1801 40.3767 43.4034 37.1534C46.6267 33.9301 48.4375 29.5584 48.4375 25C48.4375 20.4416 46.6267 16.0699 43.4034 12.8466C40.1801 9.62332 35.8084 7.8125 31.25 7.8125ZM31.25 39.0625H14.0625C11.5761 39.0625 9.19153 38.0748 7.43337 36.3166C5.67522 34.5585 4.6875 32.1739 4.6875 29.6875C4.6875 27.2011 5.67522 24.8165 7.43337 23.0584C9.19153 21.3002 11.5761 20.3125 14.0625 20.3125C14.2773 20.3125 14.4922 20.3125 14.7051 20.334C14.2778 21.8525 14.0616 23.4225 14.0625 25C14.0625 25.4144 14.2271 25.8118 14.5201 26.1049C14.8132 26.3979 15.2106 26.5625 15.625 26.5625C16.0394 26.5625 16.4368 26.3979 16.7299 26.1049C17.0229 25.8118 17.1875 25.4144 17.1875 25C17.1875 22.2187 18.0123 19.4999 19.5575 17.1873C21.1027 14.8747 23.2989 13.0723 25.8685 12.0079C28.4381 10.9436 31.2656 10.6651 33.9935 11.2077C36.7213 11.7503 39.227 13.0896 41.1937 15.0563C43.1604 17.023 44.4997 19.5287 45.0423 22.2565C45.5849 24.9844 45.3064 27.8119 44.2421 30.3815C43.1777 32.9511 41.3753 35.1473 39.0627 36.6925C36.7501 38.2377 34.0313 39.0625 31.25 39.0625Z" fill="#386AFF"/>
</svg>
