<svg width="32" height="32" viewBox="0 0 32 32" fill="none" xmlns="http://www.w3.org/2000/svg">
<path d="M31.0902 29.4098L23.6579 21.979C25.8121 19.3928 26.8862 16.0757 26.657 12.7176C26.4277 9.35959 24.9127 6.21921 22.427 3.94977C19.9413 1.68034 16.6763 0.456568 13.3114 0.533043C9.94638 0.609518 6.74042 1.98035 4.3604 4.36037C1.98038 6.74039 0.609548 9.94635 0.533074 13.3113C0.456599 16.6763 1.68037 19.9412 3.9498 22.4269C6.21924 24.9126 9.35962 26.4277 12.7177 26.6569C16.0757 26.8862 19.3928 25.812 21.9791 23.6579L29.4098 31.0901C29.5202 31.2005 29.6512 31.288 29.7953 31.3477C29.9395 31.4074 30.094 31.4381 30.25 31.4381C30.406 31.4381 30.5605 31.4074 30.7047 31.3477C30.8488 31.288 30.9798 31.2005 31.0902 31.0901C31.2005 30.9798 31.288 30.8488 31.3477 30.7047C31.4074 30.5605 31.4382 30.406 31.4382 30.25C31.4382 30.0939 31.4074 29.9394 31.3477 29.7953C31.288 29.6511 31.2005 29.5201 31.0902 29.4098ZM2.9375 13.625C2.9375 11.5112 3.56431 9.44487 4.73867 7.68731C5.91303 5.92976 7.58219 4.55992 9.53507 3.75101C11.488 2.9421 13.6369 2.73045 15.71 3.14283C17.7832 3.55521 19.6875 4.57309 21.1822 6.06777C22.6769 7.56244 23.6948 9.46677 24.1071 11.5399C24.5195 13.6131 24.3079 15.762 23.499 17.7149C22.6901 19.6678 21.3202 21.3369 19.5627 22.5113C17.8051 23.6857 15.7388 24.3125 13.625 24.3125C10.7915 24.3093 8.07488 23.1823 6.07127 21.1787C4.06766 19.1751 2.94065 16.4585 2.9375 13.625Z" fill="black"/>
</svg>
